<?xml version="1.0" encoding="utf-8"?>
<!-- Generator: Adobe Illustrator 19.0.0, SVG Export Plug-In . SVG Version: 6.00 Build 0)  -->
<svg version="1.1" id="Layer_1" xmlns="http://www.w3.org/2000/svg" xmlns:xlink="http://www.w3.org/1999/xlink" x="0px" y="0px"
	 viewBox="-247 358.9 52.9 34.6" style="enable-background:new -247 358.9 52.9 34.6;" xml:space="preserve">
<path d="M-246.9,376.6c0.3,0.8,1.1,1.3,2,1.3h44.3l-12.2,12.2c-0.4,0.4-0.6,0.9-0.6,1.4c0,0.5,0.2,1,0.6,1.4c0.8,0.8,2,0.8,2.8,0
	l15.3-15.3c0.8-0.8,0.8-2,0-2.8l-15.2-15.2c-0.6-0.6-1.6-0.9-2.4-0.5c-1.3,0.7-1.5,2.3-0.5,3.2l11.6,11.6H-245
	C-246.3,373.9-247.3,375.2-246.9,376.6z"/>
</svg>
