<?xml version="1.0" encoding="utf-8"?>
<!-- Generator: Adobe Illustrator 18.1.1, SVG Export Plug-In . SVG Version: 6.00 Build 0)  -->
<!DOCTYPE svg PUBLIC "-//W3C//DTD SVG 1.1//EN" "http://www.w3.org/Graphics/SVG/1.1/DTD/svg11.dtd">
<svg version="1.1" id="Layer_1" xmlns="http://www.w3.org/2000/svg" xmlns:xlink="http://www.w3.org/1999/xlink" x="0px" y="0px"
	 viewBox="-133 135 32 32" enable-background="new -133 135 32 32" xml:space="preserve">
<g>
	<path fill="#6B3D26" d="M-101,165c0,1.1-0.9,2-2,2h-28c-1.1,0-2-0.9-2-2v-28c0-1.1,0.9-2,2-2h28c1.1,0,2,0.9,2,2V165z"/>
	<path fill="#FFFFFF" d="M-109.5,141h-15c-1.4,0-2.5,1.1-2.5,2.5v15c0,1.4,1.1,2.5,2.5,2.5h15c1.4,0,2.5-1.1,2.5-2.5v-15
		C-107,142.1-108.1,141-109.5,141z M-117,147.1c2.2,0,4,1.7,4,3.9c0,2.1-1.8,3.9-4,3.9c-2.2,0-4-1.7-4-3.9
		C-121,148.8-119.2,147.1-117,147.1z M-109.5,157.9c0,0.4-0.2,0.6-0.6,0.6h-13.7c-0.4,0-0.6-0.2-0.6-0.6v-8.7l1.6,0.3
		c-0.2,0.5-0.3,1.1-0.3,1.7c0,3.3,2.8,6,6.2,6c3.4,0,6.2-2.7,6.2-6c0-0.6-0.1-1.2-0.3-1.7l1.5-0.3V157.9z M-109.5,146.6
		c0,0.3-0.3,0.6-0.6,0.6h-2.5c-0.3,0-0.6-0.3-0.6-0.6v-2.5c0-0.3,0.3-0.6,0.6-0.6h2.5c0.3,0,0.6,0.3,0.6,0.6V146.6z"/>
</g>
</svg>
