<?xml version="1.0" encoding="utf-8"?>
<!-- Generator: Adobe Illustrator 18.1.1, SVG Export Plug-In . SVG Version: 6.00 Build 0)  -->
<!DOCTYPE svg PUBLIC "-//W3C//DTD SVG 1.1//EN" "http://www.w3.org/Graphics/SVG/1.1/DTD/svg11.dtd">
<svg version="1.1" id="Layer_1" xmlns="http://www.w3.org/2000/svg" xmlns:xlink="http://www.w3.org/1999/xlink" x="0px" y="0px"
	 viewBox="0 0 25.3 30.9" enable-background="new 0 0 25.3 30.9" xml:space="preserve">
<g>
	<path fill="#c11f7b" d="M13.1,30c-0.2,0-0.4,0-0.6,0c-2.7-3-5.4-5.9-8.1-8.9c-3-3.2-4-7-3-11.2c1.1-4.8,5.2-8.4,9.9-8.9
		c5-0.5,9.6,1.8,11.9,6.1c2.4,4.3,1.8,9.7-1.6,13.5C18.9,23.8,16,26.9,13.1,30z M17.3,12.6c-0.1-2.4-2.2-4.4-4.5-4.3
		c-2.4,0-4.4,2.1-4.4,4.5c0,2.5,2.2,4.6,4.7,4.5C15.4,17.1,17.4,15,17.3,12.6z"/>
</g>
</svg>
